# xmcd
#
# Track frame offsets:
#	182
#	16862
#	32475
#	46337
#	57400
#	78837
#	92562
#	108125
#	120025
#	132775
#	146037
#	161550
#	178237
#	194270
#	209175
#	221212
#
# Disc length: 3145 seconds
#
# Revision: 0
# Processed by: cddbd v1.5.1PL0 Copyright (c) Steve Scherf et al.
# Submitted via: EasyCDDAExtractor 4.5.0.2
#
DISCID=da0c4710
DTITLE=Die Paldauer - Die schönsten Liebeslieder
DYEAR=1900
DGENRE=Volksmusik und Schlager
TTITLE0=Tanz mit mir , Corinna
TTITLE1=Zauber der Musik
TTITLE2=Nur ein Bild von Dir
TTITLE3=Oh nur mit Dir
TTITLE4=Du
TTITLE5=Buana Notte
TTITLE6=Du hast gewient
TTITLE7=Marina
TTITLE8=Jeder Traum hat ein Ende
TTITLE9=Marmor, Stein und Eisen bricht
TTITLE10=Glocken der Liebe
TTITLE11=Sha la la, i Love You
TTITLE12=Bon Giorno
TTITLE13=Aber Dich gibts nur einmal für mich
TTITLE14=Ramona
TTITLE15=Du hast ja Tränen in den Augen
EXTD=CD von I.B.\n
EXTT0=
EXTT1=
EXTT2=
EXTT3=
EXTT4=
EXTT5=
EXTT6=
EXTT7=
EXTT8=
EXTT9=
EXTT10=
EXTT11=
EXTT12=
EXTT13=
EXTT14=
EXTT15=
PLAYORDER=
